<?xml version="1.0" encoding="UTF-8"?>
<svg id="Layer_1" data-name="Layer 1" xmlns="http://www.w3.org/2000/svg" viewBox="0 0 306.04 333.98">
  <defs>
    <style>
      .cls-1 {
        fill: #287205;
      }

      .cls-2 {
        fill: #1c5403;
      }

      .cls-3 {
        fill: #b6ba2b;
      }

      .cls-4 {
        fill: #799611;
      }

      .cls-5 {
        fill: #236802;
      }

      .cls-6 {
        fill: #5b4604;
      }

      .cls-7 {
        fill: #544804;
      }

      .cls-8 {
        fill: #256805;
      }

      .cls-9 {
        fill: #006814;
        font-family: Impact, Impact;
        font-size: 80.92px;
      }

      .cls-10 {
        fill: #d9cf2b;
      }

      .cls-11 {
        fill: #097220;
      }
    </style>
  </defs>
  <path class="cls-11" d="m83.36,53.51s-.98,2.53-1.37,5.28c-1.54,10.81-.57,118.8-.45,130.93.03.26.09.68.17,1.2.48,3.17,1.51,9.64,5.66,15.39,1.89,2.62,3.87,4.22,4.48,4.71,5.2,4.15,16.51,5.5,16.51,5.5,2.74.23,23.59-.03,33.02,0,9.27.03,22.31.38,32.33,0,6.78-.26,7.7-.23,12.61-.46,12.37-.58,14.46-1.14,16.16-1.73.75-.26,5.47-1.83,9.92-5.68,1.66-1.44,4.1-3.54,5.86-7.03.95-1.86,1.65-4.01,2.22-11.93.24-3.27.47-7.73.46-13.07-.08-29.58-.15-59.16-.23-88.74,3.77-3.46,7.54-6.93,11.31-10.4.84,48.14.7,86.23.61,110.06-.02,6.54-.27,18.31-8.25,27.82-6.74,8.02-16.11,10.99-22.01,12.23-8.11.34-80.84,3.29-99.61.41-4.15-.64-7.84-2.02-8.15-2.13-3.47-1.31-12.39-4.81-18.62-14.13-5.37-8.03-5.92-16.18-5.94-19.77-.66-70.35-.46-121.82.23-131.85.25-3.6.96-7.56,2.75-11.69,2.56-5.92,6.25-9.42,8.25-11.62,1.92-2.11,5.82-5.82,11.92-8.25,6.44-2.56,12.11-2.41,14.98-2.14,21.18-.41,42.37-.83,63.55-1.24-4.09,3.82-8.19,7.64-12.28,11.46-9.54.14-17.21.26-22.53.35-15.2.26-14.65.29-17.43.27-7.11-.05-8.29-.25-11.68.13-5.6.64-10.54,1.2-15.56,4.72-4.89,3.43-7.79,8.23-8.9,11.39Z"/>
  <path class="cls-3" d="m171.78,93.24c4.57.75,15.54,1.74,27.26-2.13,13.64-4.51,21.68-13.69,24.88-17.43,10.03-11.74,12.88-24.24,15.13-34.09,1.71-7.48,2.09-13.29,2.45-18.65.5-7.6.76-20.65-1.22-20.94-1.26-.19-1.31,5.06-6.04,11.31-5.9,7.8-14.78,11.37-17.66,12.61-6.9,2.97-8.84,1.87-19.72,4.13-10.82,2.24-19.35,4.01-27.97,9.63-3.82,2.49-13.86,9.23-18.57,22.01-3.22,8.72-2.53,16.37-2.06,21.55.23,2.54,1.17,11.19,5.96,21.33,1.57,3.42,4.02,8.23,7.64,13.6,4.05,6,9.45,12.53,10.13,12.08.29-.2-.17-1.77-3.71-8.1-1.94-4.6-3.87-9.2-5.81-13.8,0,0-1.63-5.6-2.13-10.44-.19-2.52-.5-7.27,1.1-13.07,1.04-3.77,2.44-6.35,3.78-8.83,1.6-2.95,3.93-7.18,8.25-11.35,1.69-1.63,3.47-2.96,7.02-5.62,0,0,2.41-1.8,4.77-3.18.12-.07.24-.14.24-.14,0,0,.76-.43,1.58-.84,4.08-2,7.64-3.4,7.64-3.4,1.07-.43,1.95-.75,2.56-.97,1.74-.62,2.52-.82,4.06-1.47.59-.25,1.02-.45,1.48-.66,2.19-1.02,3.42-1.75,3.44-1.72.05.1-5.28,2.9-11.58,7.22-3.05,2.09-5.76,3.97-8.94,6.88-1.44,1.32-4.69,4.41-7.91,8.71-8.49,11.35-12.04,24.76-12.04,24.76,0,0,5.77.95,5.99.98Z"/>
  <path class="cls-6" d="m143.55,131.85c.54-3.19,2.89-5.76,3.35-6.24.09-.1.17-.17.21-.22,1.61-1.67,4.23-3.89,8.25-5.59,0,0,4.69-2.21,7.8-1.18.24.08.48.15.73.23,1.78.56,2.04.65,2.41.61.65-.07.82-.43,1.39-.7.9-.43,1.98-.24,4.07.67,2.36,1.03,4.14,2.2,5.5,3.1,3.72,2.46,5.38,3.97,6.55,5.46.34.44.68.92.68.92.43.62,1.19,1.77,2.3,4.19,1.38,2.99,1.52,4.08,1.3,5-.03.11-.04.19-.09.3-.34.75-1.05.83-3.97,1.78-1.54.5-3.03,1.05-6.02,2.15-1.22.45-1.87.69-2.58.97-3.54,1.43-6,3.02-6.54,3.34-5.43,3.26-23.2,2.99-23.85-.5-.25-1.32,1.89-3.56,11.78-7.6.19-.07,1.4-.5,1.35-.89-.03-.26-.61-.42-1-.46-1.57-.17-2.45.03-3.21.01-2.03-.05-2-2.59-4.61-3.78-2.57-1.17-5.39.03-5.79-1.05-.03-.09-.06-.19,0-.52Z"/>
  <path class="cls-10" d="m151.92,44.08c-.06-.14-.34-.17-.77-.22-.41-.05-.72-.02-.73-.02-1.23.1-2.47.02-3.7.13-1.51.13-4.53.08-10.59-.04-3.03-.06-4.21-.11-6.63-.08-1.18.02-.89.03-3.5.08-3.25.06-5.2.08-6.47.09-1.67.01-2.31.02-2.62.02-6.11.08-11.34,1.92-11.34,1.92-6.77,2.39-10.96,6.69-12.24,8.09-3.52,3.85-5.07,7.58-5.39,8.37-1.07,2.66-1.46,4.93-1.83,7.11-.74,4.21-.69,7.45-.69,8.48.25,36.08.88,72.15.92,108.23,0,.62,0,2.26.46,4.36,1.51,6.86,6.37,11.21,8.71,13.3,1.87,1.67,5.29,4.66,10.55,6.19,1.69.49,3.05.68,3.85.78,10.93,1.37,25.99.33,40.17.28,3.01-.01,5.69.03,7.35.05,9.81.13,12.57.44,20.4.43,5.13,0,7.76-.01,11.01-.4,5.13-.6,8.68-1.05,12.74-3.25,1.11-.6,4.98-2.81,8.36-7.29s4.39-8.85,4.93-11.22c.49-2.18.65-3.96.81-7.7.4-9.83.11-15.59.11-15.59.14-45.34.21-61.11.25-63.17.02-1.13.03-2.26.05-3.38.12-5.83.32-8.23-.4-8.45-.19-.06-.31.08-2.06,1.55-.73.61-1.33,1.12-1.74,1.45-.08,2.87-.11,4.24-.11,4.24,0,0,0,.01,0,.04-.2,5.28.27,68.92-.12,80.56-.2,5.98-.35,7.84-1.11,10.41-.54,1.81-2.11,7.29-7.02,11.95-3.25,3.08-6.54,4.45-7.45,4.82-3.28,1.3-5.93,1.44-10.32,1.6-11.57.44-14.55.42-14.55.42-7.68-.05-15.73-.12-24.43.04-6.6.12-9.33.16-14.79.23-.19,0-3.86.05-8.71,0-3.12-.03-4.38-.07-5.39-.12-3.73-.17-5.6-.25-7.57-.69-1.19-.26-3.77-.92-6.73-2.47-2.52-1.32-4.23-2.72-4.92-3.31-.66-.56-2.14-1.88-3.7-3.88-.64-.81-2.27-2.94-3.42-5.68-1.03-2.47-1.36-4.7-1.52-10.45-.13-4.9-.07-7.34,0-10.32.28-12.08.08-50.24-.06-63.05-.09-7.57-.04-15.14-.17-22.7-.02-1.35,0-2.39-.02-4.6-.02-4.07-.03-4.55-.02-5.38.03-1.59.09-4.86.78-7.9,1.34-5.87,4.81-9.78,6.24-11.36,1.24-1.36,3.77-4.1,7.91-6.08,1.76-.84,4.36-1.81,13.07-2.41,5.24-.36,8.98-.34,14.32-.32,3.5.01,9.11.03,16.25.03.92-1.02,1.74-1.79,2.33-2.31.78-.68,1.37-1.13,1.26-1.41Z"/>
  <path class="cls-2" d="m114.57,163.12c1.63.08,2.91.06,3.81.03.7-.02,1.17-.06,1.58-.09.96-.07,1.45-.11,2.11-.24.54-.11.96-.19,1.48-.43.38-.17.88-.38,1.27-.83.51-.59.64-1.27.69-1.61,1.24-8.11.52-29.44.5-30.54,0-.27-.01-1.02-.49-1.69-.45-.64-1.13-.92-1.66-1.15-.72-.3-1.36-.38-1.84-.44-.49-.06-.91-.07-1.2-.07-1.45-.05-2.32-.03-2.32-.03-1,.02-2.29.05-3.8.11-.06,5.72-.1,11.48-.12,17.26-.03,6.61-.03,13.19,0,19.72Z"/>
  <path class="cls-1" d="m127.74,133.12c-.02,7.58-.04,15.16-.06,22.74.74.58,1.73,1.31,2.95,2.09,2.16,1.39,3.92,2.24,4.87,2.69,3.85,1.84,7.6,2.96,10,3.58,5.35-.13,10.7-.25,16.05-.38,11.69-7.21,23.39-14.42,35.08-21.63-.32-.98-.94-2.29-2.18-3.21-1.26-.93-3.48-1.7-9.86.23-8.65,2.62-15.82,7.45-15.82,7.45h-20.64v-1.83c6.69-.04,13.38-.08,20.06-.11,1.64-.53,2.78-1.96,2.87-3.55.12-2.36-2.16-3.69-2.36-3.8-.29-.16-.55-.26-.73-.32h-13.99c-.43-.44-1-1.03-1.68-1.73-1.5-1.52-1.84-1.83-2.34-2.14-.51-.31-1.35-.73-2.58-.9-3.89,0-7.79.02-11.69.05-1.35,0-2.71.02-4.06.02h-2.64c-.27,0-.49,0-.7,0-.37-.01-.49-.03-.54.04,0,.01,0,.07-.01.18,0,.12,0,.22,0,.25,0,.07,0,.17,0,.29Z"/>
  <path class="cls-5" d="m99.64,181.66c.14.03.33.08.56.15,0,0,2.04.62,3.57,2.15.7.7,3.46,6.31,2.87,5.04h0c11.12-7.5,11.81-7.91,11.81-7.91,8.68-5.25,16.59-7.53,22.01-9.06,1.57-.44,7.34-2.02,15.36-3.1,16.79-2.24,29.28-.37,29.35-1.15.06-.66-8.9-1.96-9.63-2.06-3.52-.5-8.77-1.08-16.17-1.15-5.14-.04-10.71-.09-18.11.92-4.14.56-11.15,1.56-19.72,4.7-6.03,2.21-10.6,4.66-13.07,6.08-2.38,1.36-4.35,2.64-5.85,3.67"/>
  <path class="cls-7" d="m112.79,201.92c.44.54,2.53.46,6.73.31,1.89-.07,3.51-.19,4.74-.31,1.07.3,2.54.51,3.88-.14,1.86-.9,2.4-2.94,3.29-4.92.87-1.94,2.47-3.84,5.67-7.64,2.06-2.44,5.52-5.91,11.16-9.25,3.12-1.91,7.88-4.5,14.01-6.59,13.96-4.76,26.35-3.99,26.33-4.6-.01-.41-5.4-.62-9.83-.58-3.56.04-8.83.26-16.15,1.32-7.47,1.08-11.94,1.75-17.77,3.65-3.63,1.19-11.22,3.88-18.91,10.16-8.46,6.91-14.87,16.46-13.15,18.57Z"/>
  <path class="cls-4" d="m141.22,201.92c.84,1.3,2.65.36,9.17.76,4.24.26,6.26.83,7.34-.46.58-.69.41-1.34.61-3.52,0,0,.16-1.73,1.16-6.1.95-4.15,3.8-7.27,5.41-9.04,8.2-8.98,29.03-11.54,28.89-12.54-.09-.67-9.56-.86-20.33,2.14-2.19.61-12.55,3.62-20.18,10.09-2.48,2.1-4.71,4.61-4.91,4.83-1.38,1.55-3.29,3.73-5.03,6.94-1.82,3.36-3,5.53-2.14,6.88Z"/>
  <path class="cls-8" d="m169.96,200.85c.98,2.01,19.56,1.55,20.03.61.74-1.48-3.06-3.31-4.13-7.95-.73-3.18.21-5.99.92-8.1,1.31-3.91,3.49-6.35,3.97-6.88,3.58-3.9,7.88-5.04,7.64-5.66-.1-.25-1.39-.07-3.97.31-.9.13-1.77.26-2.94.5-1.83.38-3.18.78-4.17,1.07-1.57.47-2.88.86-4.51,1.55-.82.35-2.54,1.09-4.28,2.23-1.44.94-4.4,2.9-6.42,6.57-1.6,2.92-1.97,5.73-2.25,7.91-.07.53-.31,2.5-.19,5.08.08,1.61.13,2.4.31,2.75Z"/>
  <text class="cls-9" transform="translate(.4 307.23) scale(.83 1)"><tspan x="0" y="0">Agri advice</tspan></text>
</svg>